<?xml version="1.0" encoding="UTF-8"?><svg id="Camada_1" xmlns="http://www.w3.org/2000/svg" viewBox="0 0 850.39 283.46"><defs><style>.cls-1{fill:#ea5923;}</style></defs><path class="cls-1" d="M112.16,144.45l-52.98,52.91,15.62-45.71-.06-.09c.2-.49,.28-1.03,.22-1.6-.19-1.69-1.67-2.93-3.37-2.93h-11.97l-.12-.23c-1.8-.03-3.25-1.5-3.25-3.3,0-.72,.23-1.38,.62-1.92l-.05-.09,52.6-52.52-15.23,45.32,.06,.09c-.2,.49-.28,1.03-.22,1.6,.19,1.69,1.67,2.94,3.37,2.94h11.97l.12,.23c1.8,.03,3.25,1.5,3.25,3.3,0,.72-.23,1.38-.62,1.92l.05,.09Zm30.25-14.03h-21.31c-1.79,0-2.76-2.1-1.59-3.46l39.49-46.17H76.16l-56.88,56.79c-.14,.13-.28,.27-.42,.42l-.65,.65,.03,.07c-1.38,1.75-2.2,3.94-2.22,6.33-.05,5.75,4.8,10.46,10.55,10.46h21.31c1.79,0,2.76,2.1,1.59,3.46L9.98,205.14H92.83l56.87-56.79c.14-.13,.28-.27,.42-.42l.65-.65-.03-.07c1.38-1.75,2.21-3.94,2.22-6.33,.05-5.75-4.8-10.46-10.55-10.46"/><g><polygon class="cls-1" points="735.82 96.99 735.82 108.9 743.61 108.9 743.61 180.62 759.54 180.62 759.54 108.9 759.54 96.99 743.61 96.99 735.82 96.99"/><path class="cls-1" d="M419.44,169.68c-1.87,.8-3.91,1.2-6.13,1.2-3.67,0-6.47-.88-8.42-2.64-1.95-1.76-2.92-4.05-2.92-6.88s.97-5.13,2.92-6.93c1.95-1.79,4.75-2.69,8.42-2.69h12.95v5.84c-.15,3.36-.86,6.02-2.12,7.96-1.26,1.95-2.83,3.32-4.7,4.13m9.17-49.67c-4.24-1.68-9.56-2.52-15.98-2.52-2.06,0-4.26,.02-6.59,.06-2.33,.04-4.6,.13-6.82,.29-2.21,.15-4.2,.31-5.96,.45v13.52c2.14-.15,4.56-.29,7.27-.4,2.71-.11,5.41-.21,8.08-.29,2.67-.07,4.97-.11,6.88-.11,3.67,0,6.37,.88,8.13,2.63,1.76,1.76,2.64,4.43,2.64,8.02v.57h-12.72c-5.5,0-10.29,.73-14.38,2.18-4.09,1.45-7.26,3.63-9.51,6.53-2.25,2.91-3.38,6.64-3.38,11.23,0,4.2,.94,7.79,2.81,10.77,1.87,2.98,4.51,5.27,7.91,6.87,3.4,1.6,7.35,2.41,11.86,2.41s8.04-.79,11.06-2.35c3.01-1.57,5.38-3.84,7.1-6.82,.77-1.34,1.39-2.84,1.89-4.46v12.01h12.6v-38.61c0-5.81-1.09-10.5-3.26-14.09-2.18-3.59-5.38-6.22-9.63-7.9"/><path class="cls-1" d="M504.51,159.71c-1.45,3.02-3.46,5.37-6.02,7.05-2.56,1.68-5.56,2.52-8.99,2.52-2.98,0-5.81-.69-8.48-2.06-2.67-1.38-4.85-3.32-6.53-5.84-1.68-2.52-2.52-5.57-2.52-9.17v-4.58c0-3.74,.82-6.95,2.47-9.62,1.64-2.67,3.78-4.7,6.41-6.07,2.64-1.38,5.52-2.06,8.65-2.06,3.44,0,6.43,.82,8.99,2.46,2.56,1.64,4.56,3.92,6.02,6.82,1.45,2.91,2.18,6.34,2.18,10.31s-.73,7.24-2.18,10.25m10.14-34.08c-2.56-2.9-5.61-5.15-9.17-6.76-3.55-1.6-7.54-2.41-11.97-2.41-4.81,0-9.16,1.05-13.06,3.15-3.9,2.1-7.01,5.29-9.34,9.57-.81,1.47-1.44,3.12-2.01,4.84v-15.61h-12.6v85.13h15.93v-31.28c2.22,3.29,4.97,5.82,8.3,7.51,3.86,1.95,8.12,2.92,12.77,2.92s8.44-.82,12.03-2.46c3.59-1.64,6.66-3.93,9.22-6.88,2.56-2.94,4.51-6.34,5.84-10.19,1.33-3.86,2.01-8.04,2.01-12.55v-2.41c0-4.43-.69-8.57-2.06-12.43-1.38-3.86-3.34-7.24-5.9-10.14"/><path class="cls-1" d="M583.9,135.14c-4.51-2.06-9.74-3.32-15.7-3.78l-7.33-.69c-4.13-.31-7.14-1.43-9.05-3.38-1.91-1.95-2.86-4.22-2.86-6.82,0-2.14,.53-4.13,1.6-5.96,1.07-1.83,2.67-3.28,4.81-4.35,2.14-1.07,4.81-1.6,8.02-1.6s6.13,.59,8.3,1.78c2.18,1.19,3.82,2.75,4.93,4.7,1.11,1.95,1.66,4.07,1.66,6.36h15.92c0-5.42-1.26-10.14-3.78-14.15-2.52-4.01-6.07-7.12-10.66-9.34-4.58-2.22-10.04-3.32-16.38-3.32s-11.44,1.05-15.98,3.15c-4.55,2.1-8.08,5.08-10.6,8.94-2.52,3.86-3.78,8.46-3.78,13.8,0,7.1,2.38,12.82,7.16,17.13,4.77,4.32,11.17,6.82,19.19,7.51l7.33,.57c5.27,.46,9.16,1.59,11.69,3.38,2.52,1.79,3.78,4.18,3.78,7.16,0,2.37-.65,4.49-1.95,6.36-1.3,1.87-3.28,3.38-5.96,4.53-2.67,1.15-6,1.72-9.97,1.72-4.43,0-8-.65-10.71-1.95-2.71-1.3-4.68-3-5.9-5.1-1.22-2.1-1.83-4.26-1.83-6.47h-15.93c0,5.27,1.34,9.99,4.01,14.15,2.67,4.16,6.55,7.43,11.63,9.8,5.08,2.37,11.32,3.55,18.73,3.55,6.88,0,12.85-1.11,17.93-3.32,5.08-2.21,8.99-5.33,11.74-9.34,2.75-4.01,4.12-8.65,4.12-13.92,0-4.96-1.24-9.2-3.72-12.72-2.48-3.51-5.98-6.3-10.48-8.36"/><path class="cls-1" d="M649.15,163.44c-1.18,1.76-2.77,3.13-4.75,4.13-1.99,.99-4.35,1.49-7.1,1.49-3.67,0-6.66-.84-8.99-2.52-2.33-1.68-4.05-4.01-5.16-6.99-1.11-2.98-1.66-6.3-1.66-9.97s.57-7.2,1.72-10.14c1.15-2.94,2.88-5.25,5.21-6.93,2.33-1.68,5.25-2.52,8.76-2.52,4.05,0,7.23,1.07,9.57,3.21,2.33,2.14,3.68,4.81,4.07,8.02h15.47c-.31-4.96-1.74-9.32-4.3-13.06-2.56-3.74-5.98-6.66-10.25-8.76-4.28-2.1-9.13-3.15-14.55-3.15s-9.76,.9-13.69,2.69c-3.93,1.8-7.24,4.2-9.91,7.22-2.67,3.02-4.68,6.46-6.01,10.31-1.34,3.86-2.01,7.89-2.01,12.09v2.18c0,3.98,.65,7.87,1.95,11.69,1.3,3.82,3.26,7.26,5.9,10.31,2.63,3.06,5.92,5.5,9.85,7.33,3.93,1.84,8.61,2.75,14.03,2.75s10.41-1.07,14.72-3.21c4.31-2.14,7.79-5.1,10.43-8.88,2.63-3.78,4.1-8.19,4.41-13.23h-15.47c-.31,2.22-1.05,4.2-2.24,5.96"/><path class="cls-1" d="M705.74,169.68c-1.87,.8-3.91,1.2-6.13,1.2-3.67,0-6.47-.88-8.42-2.64s-2.92-4.05-2.92-6.88,.98-5.13,2.92-6.93c1.95-1.79,4.75-2.69,8.42-2.69h12.95v5.84c-.15,3.36-.86,6.02-2.12,7.96-1.26,1.95-2.83,3.32-4.7,4.13m9.17-49.67c-4.24-1.68-9.56-2.52-15.98-2.52-2.06,0-4.26,.02-6.59,.06-2.33,.04-4.6,.13-6.82,.29-2.21,.15-4.2,.31-5.96,.45v13.52c2.14-.15,4.56-.29,7.28-.4,2.71-.11,5.4-.21,8.08-.29,2.67-.07,4.97-.11,6.88-.11,3.67,0,6.38,.88,8.13,2.63,1.76,1.76,2.64,4.43,2.64,8.02v.57h-12.72c-5.5,0-10.29,.73-14.38,2.18-4.09,1.45-7.26,3.63-9.51,6.53-2.25,2.91-3.38,6.64-3.38,11.23,0,4.2,.94,7.79,2.81,10.77,1.87,2.98,4.51,5.27,7.91,6.87,3.4,1.6,7.35,2.41,11.86,2.41s8.04-.79,11.06-2.35c3.01-1.57,5.38-3.84,7.1-6.82,.77-1.34,1.39-2.84,1.89-4.46v12.01h12.6v-38.61c0-5.81-1.09-10.5-3.26-14.09-2.18-3.59-5.38-6.22-9.63-7.9"/><path class="cls-1" d="M230.91,135.14c-4.51-2.06-9.74-3.32-15.7-3.78l-7.33-.69c-4.13-.31-7.14-1.43-9.05-3.38-1.91-1.95-2.86-4.22-2.86-6.82,0-2.14,.53-4.13,1.6-5.96,1.07-1.83,2.67-3.28,4.81-4.35,2.14-1.07,4.81-1.6,8.02-1.6s6.13,.59,8.31,1.78c2.18,1.19,3.82,2.75,4.93,4.7,1.11,1.95,1.66,4.07,1.66,6.36h15.92c0-5.42-1.26-10.14-3.78-14.15-2.52-4.01-6.07-7.12-10.66-9.34-4.58-2.22-10.04-3.32-16.38-3.32s-11.44,1.05-15.98,3.15c-4.54,2.1-8.08,5.08-10.6,8.94-2.52,3.86-3.78,8.46-3.78,13.8,0,7.1,2.39,12.82,7.16,17.13,4.77,4.32,11.17,6.82,19.19,7.51l7.33,.57c5.27,.46,9.17,1.59,11.69,3.38,2.52,1.79,3.78,4.18,3.78,7.16,0,2.37-.65,4.49-1.95,6.36-1.3,1.87-3.28,3.38-5.96,4.53-2.67,1.15-6,1.72-9.97,1.72-4.43,0-8-.65-10.71-1.95s-4.68-3-5.9-5.1c-1.22-2.1-1.83-4.26-1.83-6.47h-15.93c0,5.27,1.33,9.99,4.01,14.15,2.67,4.16,6.55,7.43,11.63,9.8,5.08,2.37,11.32,3.55,18.74,3.55,6.87,0,12.85-1.11,17.93-3.32,5.08-2.21,8.99-5.33,11.75-9.34,2.75-4.01,4.12-8.65,4.12-13.92,0-4.96-1.24-9.2-3.72-12.72-2.48-3.51-5.98-6.3-10.48-8.36"/><path class="cls-1" d="M282.29,166.64h-2.41l-15.17-48.23h-16.04l20.16,60.84h10.17l-.89,3.44c-.54,2.21-1.3,3.95-2.29,5.21-1,1.26-2.23,2.18-3.73,2.75-1.49,.57-3.34,.86-5.55,.86h-11.69v13.63h10.19c5.12,0,9.41-.61,12.89-1.83,3.48-1.22,6.32-3.23,8.54-6.02,2.22-2.79,3.93-6.51,5.16-11.17l18.45-67.71h-15.24l-12.55,48.23Z"/><path class="cls-1" d="M793.91,131.82c2.45-1.61,5.42-2.41,8.94-2.41s6.43,.77,8.77,2.29c2.33,1.53,4.07,3.71,5.21,6.53,.65,1.6,1.1,3.41,1.38,5.39h-31.24c.31-1.76,.78-3.39,1.39-4.87,1.26-3.02,3.11-5.33,5.56-6.93m25.84-11.17c-4.54-2.94-10.18-4.41-16.9-4.41-5.12,0-9.62,.9-13.52,2.69-3.9,1.8-7.16,4.2-9.8,7.22-2.64,3.02-4.62,6.46-5.96,10.31-1.34,3.86-2.01,7.85-2.01,11.97v2.18c0,3.98,.67,7.87,2.01,11.69,1.33,3.82,3.32,7.27,5.96,10.37,2.63,3.09,5.96,5.56,9.97,7.39,4.01,1.84,8.69,2.75,14.04,2.75s9.68-.88,13.69-2.64c4.01-1.75,7.31-4.24,9.91-7.45,2.6-3.21,4.35-6.95,5.27-11.23h-14.67c-.69,2.29-2.25,4.22-4.7,5.78-2.45,1.57-5.61,2.35-9.51,2.35s-7.1-.86-9.63-2.58c-2.52-1.72-4.39-4.08-5.61-7.1-.81-2-1.32-4.21-1.6-6.59h46.74v-5.73c0-5.5-1.15-10.63-3.44-15.41-2.29-4.77-5.71-8.63-10.25-11.57"/><path class="cls-1" d="M353.62,116.46h-.69c-4.96,0-33.91,1.95-33.91,1.95v62.21h15.88v-48.9s23.5-6.77,24.94,8.28c.25,1.13,.42,2.32,.42,3.61v37h15.93v-35.63c0-9.47-1.91-16.59-5.73-21.37-3.82-4.77-9.43-7.16-16.84-7.16"/></g></svg>